<?xml version="1.0" encoding="UTF-8" standalone="no"?>
<!-- Created with Inkscape (http://www.inkscape.org/) -->

<svg
   xmlns:dc="http://purl.org/dc/elements/1.1/"
   xmlns:cc="http://creativecommons.org/ns#"
   xmlns:rdf="http://www.w3.org/1999/02/22-rdf-syntax-ns#"
   xmlns:svg="http://www.w3.org/2000/svg"
   xmlns="http://www.w3.org/2000/svg"
   xmlns:xlink="http://www.w3.org/1999/xlink"
   xmlns:sodipodi="http://sodipodi.sourceforge.net/DTD/sodipodi-0.dtd"
   xmlns:inkscape="http://www.inkscape.org/namespaces/inkscape"
   width="1000mm"
   height="1000mm"
   viewBox="0 0 1000 1000"
   version="1.1"
   id="svg8"
   inkscape:version="0.92.4 (5da689c313, 2019-01-14)"
   sodipodi:docname="logo-full.svg"
   inkscape:export-filename="Z:\PROTORS\_AKTIVNI PROJEKTI\LUNGSTORS\logo\logo-full.png"
   inkscape:export-xdpi="96"
   inkscape:export-ydpi="96">
  <defs
     id="defs2">
    <linearGradient
       id="linearGradient4613"
       inkscape:collect="always">
      <stop
         id="stop4609"
         offset="0"
         style="stop-color:#0d324e;stop-opacity:0" />
      <stop
         id="stop4611"
         offset="1"
         style="stop-color:#2e85c7;stop-opacity:0.6231156" />
    </linearGradient>
    <linearGradient
       inkscape:collect="always"
       id="linearGradient4584-6">
      <stop
         style="stop-color:#0d324e;stop-opacity:0"
         offset="0"
         id="stop4580" />
      <stop
         style="stop-color:#2e85c7;stop-opacity:0.6231156"
         offset="1"
         id="stop4582" />
    </linearGradient>
    <linearGradient
       inkscape:collect="always"
       xlink:href="#linearGradient4584-6"
       id="linearGradient4848"
       gradientUnits="userSpaceOnUse"
       gradientTransform="matrix(3.6626907,0,0,3.6012096,49.708267,2613.4045)"
       x1="129.14059"
       y1="-304.06888"
       x2="436.12473"
       y2="-187.13847" />
    <linearGradient
       inkscape:collect="always"
       xlink:href="#linearGradient4613"
       id="linearGradient4850"
       gradientUnits="userSpaceOnUse"
       gradientTransform="matrix(3.6626907,0,0,3.6012096,49.708267,2613.4045)"
       x1="129.14059"
       y1="-304.06888"
       x2="436.12473"
       y2="-187.13847" />
    <linearGradient
       inkscape:collect="always"
       xlink:href="#linearGradient4584-6"
       id="linearGradient4886"
       gradientUnits="userSpaceOnUse"
       gradientTransform="matrix(-0.9690875,0,0,0.95282003,986.84828,-11.536605)"
       x1="129.14059"
       y1="-304.06888"
       x2="436.12473"
       y2="-187.13847" />
    <linearGradient
       inkscape:collect="always"
       xlink:href="#linearGradient4613"
       id="linearGradient4888"
       gradientUnits="userSpaceOnUse"
       gradientTransform="matrix(-0.9690875,0,0,0.95282003,986.84828,-11.536605)"
       x1="129.14059"
       y1="-304.06888"
       x2="436.12473"
       y2="-187.13847" />
  </defs>
  <sodipodi:namedview
     id="base"
     pagecolor="#ffffff"
     bordercolor="#666666"
     borderopacity="1.0"
     inkscape:pageopacity="0.0"
     inkscape:pageshadow="2"
     inkscape:zoom="0.16000001"
     inkscape:cx="-17.911832"
     inkscape:cy="1716.1688"
     inkscape:document-units="mm"
     inkscape:current-layer="layer1"
     showgrid="false"
     inkscape:window-width="1920"
     inkscape:window-height="1017"
     inkscape:window-x="-8"
     inkscape:window-y="442"
     inkscape:window-maximized="1" />
  <metadata
     id="metadata5">
    <rdf:RDF>
      <cc:Work
         rdf:about="">
        <dc:format>image/svg+xml</dc:format>
        <dc:type
           rdf:resource="http://purl.org/dc/dcmitype/StillImage" />
        <dc:title />
      </cc:Work>
    </rdf:RDF>
  </metadata>
  <g
     inkscape:label="Layer 1"
     inkscape:groupmode="layer"
     id="layer1"
     transform="translate(0,703)">
    <g
       id="g850"
       transform="translate(0,-61.302414)">
      <path
         sodipodi:nodetypes="sszsss"
         inkscape:connector-curvature="0"
         id="path4518"
         d="m 577.00844,-446.18119 c -25.91163,25.9286 -52.01637,320.80585 20.74149,463.72473 32.67115,64.176216 69.39299,32.063925 135.93721,51.327504 66.54422,19.26358 116.75838,72.276476 148.43783,34.553206 30.73686,-36.600835 -38.05183,-336.62219 -109.4695,-456.42424 -39.03139,-65.47456 -159.93809,-128.91352 -195.64703,-93.1812 z"
         style="fill:#ffffff;fill-opacity:1;stroke:#000000;stroke-width:10;stroke-linecap:butt;stroke-linejoin:miter;stroke-miterlimit:4;stroke-dasharray:none;stroke-opacity:0.96482412" />
      <path
         sodipodi:nodetypes="sszsss"
         inkscape:connector-curvature="0"
         id="path4518-2"
         d="m 422.99157,-446.18118 c 25.9116,25.9286 52.0164,320.80584 -20.7415,463.724737 -32.6711,64.17622 -69.393,32.06392 -135.9372,51.3275 -66.54422,19.26357 -116.75832,72.276463 -148.43782,34.553203 -30.736903,-36.600843 38.0518,-336.62221 109.4695,-456.42425 39.03142,-65.47456 159.93812,-128.91351 195.64702,-93.18119 z"
         style="fill:#ffffff;fill-opacity:1;stroke:#000000;stroke-width:10;stroke-linecap:butt;stroke-linejoin:miter;stroke-miterlimit:4;stroke-dasharray:none;stroke-opacity:0.96482412" />
      <path
         sodipodi:nodetypes="sssssssssssssssssssscccccscssccccsscccccscscscccssscccccscssccccsscccccscscscccssssccscsscscsscsccssccscsssscsccccsccs"
         style="stroke-width:0.10546404"
         inkscape:connector-curvature="0"
         d="m 231.92663,-40.868891 c 0,-7.45282 -2.6366,-13.815816 -7.90977,-19.088998 -5.27321,-5.273211 -11.6362,-7.909821 -19.08898,-7.909821 -7.45276,0 -13.81576,2.63661 -19.08897,7.909821 -5.27321,5.273182 -7.90977,11.636178 -7.90977,19.088998 0,7.452787 2.63656,13.815783 7.90977,19.088964 5.27321,5.273213 11.63621,7.909816 19.08897,7.909816 7.45278,0 13.81577,-2.636603 19.08898,-7.909816 5.27317,-5.273181 7.90977,-11.636177 7.90977,-19.088964 z m 80.99628,53.997567 c 0,-3.6560837 -1.33588,-6.8199984 -4.0076,-9.4917644 -2.67176,-2.67176497 -5.83567,-4.00760731 -9.49176,-4.00760731 -3.6561,0 -6.82002,1.33584234 -9.49174,4.00760731 -2.67176,2.671766 -4.00764,5.8356807 -4.00764,9.4917644 0,3.726385 1.3183,6.907888 3.9549,9.544498 2.6366,2.636603 5.81811,3.954909 9.54448,3.954909 3.7264,0 6.90789,-1.318306 9.5445,-3.954909 2.63656,-2.63661 3.95486,-5.818113 3.95486,-9.544498 z m -40.49813,-63.594797 v 19.510837 c 0,0.703105 -0.24606,1.388624 -0.73826,2.056565 -0.49216,0.667942 -1.05463,1.037042 -1.68741,1.10736 l -16.34689,2.531139 c -0.77342,2.460819 -1.89836,5.132586 -3.37487,8.015246 2.39051,3.374863 5.55442,7.4176342 9.49175,12.1283792 0.49216,0.703096 0.73826,1.406192 0.73826,2.1092881 0,0.843691 -0.2461,1.5116321 -0.73826,2.003825 -1.61709,2.1092553 -4.51737,5.2556023 -8.70075,9.4390336 -4.18339,4.1833881 -6.94305,6.2750991 -8.27893,6.2750991 -0.77341,0 -1.51166,-0.2461 -2.21472,-0.738251 L 228.44635,4.4806356 c -2.60145,1.335883 -5.30837,2.425666 -8.12072,3.2693899 -0.77341,7.5934125 -1.58198,13.0423755 -2.4257,16.3469185 -0.49216,1.687415 -1.54678,2.531139 -3.16392,2.531139 h -19.61629 c -0.77337,0 -1.47647,-0.263678 -2.10925,-0.790992 -0.63278,-0.527314 -0.98436,-1.142515 -1.05467,-1.84562 L 189.53015,7.8554975 C 187.13964,7.1524016 184.50303,6.0625776 181.62037,4.5861086 L 169.1756,13.9724 c -0.49215,0.492151 -1.19526,0.738251 -2.10926,0.738251 -0.7734,0 -1.51165,-0.281255 -2.21475,-0.843723 -10.12454,-9.3511374 -15.18681,-14.9758747 -15.18681,-16.8742347 0,-0.6327781 0.24611,-1.3007191 0.73826,-2.0038241 0.7031,-0.984351 2.14445,-2.847548 4.32401,-5.5895822 2.17961,-2.742084 3.83186,-4.886536 4.9568,-6.433315 -1.61709,-3.093606 -2.84751,-5.976318 -3.69123,-8.648042 l -16.03048,-2.53113 c -0.7031,-0.07029 -1.30073,-0.404305 -1.79292,-1.001937 -0.49216,-0.597624 -0.73822,-1.283143 -0.73822,-2.056557 v -19.510837 c 0,-0.703097 0.24606,-1.388615 0.73822,-2.056556 0.49219,-0.667908 1.05466,-1.037051 1.68745,-1.107369 l 16.34689,-2.531138 c 0.77341,-2.460822 1.89836,-5.132588 3.37487,-8.015246 -2.39056,-3.37487 -5.55447,-7.41763 -9.49176,-12.12838 -0.49219,-0.77341 -0.73825,-1.47651 -0.73825,-2.10929 0,-0.84369 0.24606,-1.54679 0.73825,-2.10926 1.54678,-2.1093 4.42948,-5.23805 8.64803,-9.386278 4.21854,-4.14828 6.99578,-6.22242 8.33164,-6.22242 0.77342,0 1.51164,0.2461 2.21473,0.73826 l 12.12836,9.491758 c 2.39051,-1.26556 5.09742,-2.39051 8.12072,-3.374818 0.7734,-7.59341 1.58197,-13.007272 2.42565,-16.241502 0.4922,-1.68741 1.54682,-2.53114 3.16392,-2.53114 h 19.61629 c 0.77341,0 1.47651,0.26368 2.10929,0.79099 0.63278,0.52732 0.98435,1.14253 1.05463,1.84562 l 2.4257,16.136032 c 2.39051,0.703058 5.02711,1.792878 7.90978,3.269348 l 12.44472,-9.386288 c 0.56251,-0.49216 1.26557,-0.73826 2.10929,-0.73826 0.77341,0 1.51166,0.28126 2.21476,0.84373 10.12454,9.351138 15.18681,14.975878 15.18681,16.874228 0,0.63278 -0.24609,1.30073 -0.73825,2.00382 -0.84373,1.12494 -2.32024,3.02329 -4.42949,5.69506 -2.10929,2.67177 -3.69127,4.78106 -4.7459,6.32784 1.61714,3.374863 2.8124,6.257532 3.5858,8.648079 l 16.03049,2.425674 c 0.7031,0.140586 1.30072,0.509728 1.79288,1.10736 0.4922,0.597623 0.73826,1.283141 0.73826,2.056556 z M 339.9217,5.7462086 V 20.511179 c 0,1.124946 -5.23805,2.214727 -15.71416,3.269355 -0.84368,1.898352 -1.89834,3.726394 -3.16391,5.484159 3.58579,7.944936 5.37867,12.796267 5.37867,14.554031 0,0.281216 -0.14062,0.527314 -0.42184,0.738256 -8.57775,4.991958 -12.93692,7.487939 -13.07755,7.487939 -0.56247,0 -2.17955,-1.652295 -4.85132,-4.956803 -2.67177,-3.304548 -4.4998,-5.695057 -5.48411,-7.171567 -1.4062,0.140627 -2.46083,0.210941 -3.16393,0.210941 -0.70308,0 -1.75775,-0.07031 -3.1639,-0.210941 -0.98436,1.47651 -2.8124,3.867019 -5.48416,7.171567 -2.67172,3.304508 -4.28886,4.956803 -4.85132,4.956803 -0.14063,0 -4.49981,-2.495981 -13.07751,-7.487939 -0.28125,-0.210942 -0.42188,-0.45704 -0.42188,-0.738256 0,-1.757764 1.79287,-6.609095 5.37867,-14.554031 -1.26556,-1.757765 -2.32023,-3.585807 -3.16392,-5.484159 -10.4761,-1.054628 -15.71411,-2.144409 -15.71411,-3.269355 V 5.7462086 c 0,-1.124945 5.23801,-2.21477 15.71411,-3.269397 0.914,-2.03897934 1.96867,-3.8670132 3.16392,-5.4841183 -3.5858,-7.9449793 -5.37867,-12.7963113 -5.37867,-14.5540353 0,-0.281255 0.14063,-0.527313 0.42188,-0.738259 0.28122,-0.140627 1.51162,-0.843724 3.69123,-2.109289 2.17956,-1.265573 4.25369,-2.460828 6.22236,-3.585766 1.96867,-1.124937 3.02329,-1.687414 3.16392,-1.687414 0.56246,0 2.1796,1.634682 4.85132,4.904071 2.67176,3.269389 4.4998,5.642323 5.48416,7.118833 1.40615,-0.140627 2.46082,-0.210945 3.1639,-0.210945 0.7031,0 1.75773,0.07029 3.16393,0.210945 3.58576,-4.991999 6.81999,-8.929297 9.70265,-11.812 l 0.63278,-0.210904 c 0.28126,0 4.64043,2.460828 13.07755,7.382469 0.28122,0.210946 0.42184,0.457004 0.42184,0.738259 0,1.757724 -1.79288,6.609056 -5.37867,14.5540353 1.19529,1.6171051 2.24992,3.44513896 3.16391,5.4841183 10.47611,1.054627 15.71416,2.144452 15.71416,3.269397 z"
         id="path4535" />
      <path
         sodipodi:nodetypes="sscssscccs"
         inkscape:connector-curvature="0"
         id="path4846"
         transform="matrix(0.26458333,0,0,0.26458333,0,-703)"
         d="m 1454.4785,1026.6172 c -169.3445,1.4879 -447.7507,174.7877 -551.96092,352.4902 -43.45621,74.1029 -177.2183,420.3672 -218.14884,525.9088 86.85081,34.7722 104.3578,-22.1381 161.05381,29.5301 80.78135,73.6171 15.93594,98.4888 74.09777,173.0094 58.16188,74.5207 210.93268,-99.6385 185.03708,226.28 -13.5653,170.7312 243.3316,85.6298 338.8453,143.9006 19.1701,11.6953 51.5767,103.613 71.5586,121.8214 173.7595,-516.4111 122.5071,-1457.0075 43.066,-1537.8155 -24.3021,-24.7204 -60.3825,-35.5043 -103.5488,-35.125 z"
         style="fill:url(#linearGradient4848);fill-opacity:1;stroke:url(#linearGradient4850);stroke-width:2.37145472px;stroke-linecap:butt;stroke-linejoin:miter;stroke-opacity:1" />
      <path
         sodipodi:nodetypes="sszsss"
         inkscape:connector-curvature="0"
         id="path4884"
         d="m 587.77202,-422.08067 c -22.97012,23.36535 -46.11151,289.09171 18.3869,417.881761 28.96227,57.831922 61.5155,28.894178 120.50557,46.253392 58.99009,17.359224 103.50387,65.131547 131.58709,31.137358 27.24765,-32.982562 -33.73213,-303.344321 -97.04249,-411.303011 -34.60054,-59.00189 -141.78189,-116.16939 -173.43707,-83.9695 z"
         style="fill:url(#linearGradient4886);fill-opacity:1;stroke:url(#linearGradient4888);stroke-width:0.62744737px;stroke-linecap:butt;stroke-linejoin:miter;stroke-opacity:1" />
      <path
         inkscape:connector-curvature="0"
         d="m 611.41498,-212.42252 c 0,0 41.75692,15.56292 70.81962,16.97733 29.06271,1.41444 56.48365,-17.13031 56.48365,-17.13031 m -93.62342,11.29078 c 36.61002,52.23062 30.31045,96.17657 12.38112,154.252 M 500.002,-290.99491 c 0,0 8.98166,36.195 48.94478,59.49448 21.76386,12.68888 58.62995,13.94933 75.08023,25.50543 29.94501,18.61326 73.99356,58.73565 109.33541,98.0267 m -344.7734,-104.45422 c 0,0 -41.75692,15.56292 -70.81961,16.97733 -29.0627,1.41444 -56.48363,-17.13031 -56.48363,-17.13031 m 93.62341,11.29078 c -36.61002,52.23062 -30.31046,96.17657 -12.38112,154.252 M 500.002,-290.99491 c 0,0 -8.98166,36.195 -48.94478,59.49448 -21.76386,12.68888 -58.62993,13.94933 -75.08023,25.50543 -29.94501,18.61326 -73.99354,58.73565 -109.3354,98.0267 M 500.002,-492.60768 v 201.61277"
         style="fill:none;stroke:#ffffff;stroke-width:50;stroke-linecap:round;stroke-linejoin:miter;stroke-miterlimit:4;stroke-dasharray:none;stroke-opacity:1;paint-order:stroke fill markers"
         id="path4892-9-6"
         sodipodi:nodetypes="ccccccsccccccccscccc" />
      <path
         sodipodi:nodetypes="csccccscc"
         inkscape:connector-curvature="0"
         d="m 388.58902,-212.42251 c 0,0 -41.75692,15.56291 -70.81962,16.97733 -29.0627,1.41443 -56.48363,-17.13032 -56.48363,-17.13032 m 93.62342,11.29077 c -36.61003,52.23065 -30.31047,96.17657 -12.38113,154.252003 M 500.002,-290.99491 c 0,0 -8.98166,36.195 -48.94478,59.49449 -21.76386,12.68887 -58.62993,13.94933 -75.08023,25.50543 -29.94501,18.61325 -73.99355,58.73564 -109.33541,98.0267"
         style="fill:none;stroke:#2e85c7;stroke-width:35;stroke-linecap:round;stroke-linejoin:miter;stroke-miterlimit:4;stroke-dasharray:none;stroke-opacity:1;paint-order:stroke fill markers"
         id="path4892" />
      <path
         sodipodi:nodetypes="csccccscc"
         inkscape:connector-curvature="0"
         d="m 611.41498,-212.42251 c 0,0 41.75692,15.56291 70.81962,16.97733 29.0627,1.41443 56.48363,-17.13032 56.48363,-17.13032 m -93.62342,11.29077 c 36.61003,52.23065 30.31047,96.17657 12.38113,154.252006 M 500.002,-290.99491 c 0,0 8.98166,36.195 48.94478,59.49449 21.76386,12.68887 58.62993,13.94933 75.08023,25.50543 29.94501,18.61325 73.99355,58.73564 109.33541,98.0267"
         style="fill:none;stroke:#2e85c7;stroke-width:35;stroke-linecap:round;stroke-linejoin:miter;stroke-miterlimit:4;stroke-dasharray:none;stroke-opacity:1;paint-order:stroke fill markers"
         id="path4892-9" />
      <path
         sodipodi:nodetypes="cc"
         inkscape:connector-curvature="0"
         id="path4561"
         d="m 500.002,-492.60768 v 201.61277"
         style="fill:none;stroke:#2e85c7;stroke-width:40;stroke-linecap:round;stroke-linejoin:miter;stroke-miterlimit:4;stroke-dasharray:none;stroke-opacity:1" />
    </g>
    <g
       aria-label="#LUNGSTORS"
       style="font-style:normal;font-variant:normal;font-weight:normal;font-stretch:normal;font-size:114.54771423px;line-height:1.25;font-family:arial;-inkscape-font-specification:arial;letter-spacing:0px;word-spacing:0px;fill:#000000;fill-opacity:1;stroke:none;stroke-width:0.59660262"
       id="text899"
       transform="translate(0,-61.302414)">
      <path
         d="m 123.19787,211.08772 h -7.60668 v -12.30493 h 10.06767 l 3.35589,-16.49979 h -13.42356 v -12.36087 h 15.94047 l 4.41859,-21.81328 h 12.52866 l -4.41859,21.81328 h 12.36086 l 4.30673,-21.81328 h 12.97611 l -4.47452,21.81328 h 7.71854 V 182.283 h -10.23546 l -3.35589,16.49979 h 13.59135 v 12.30493 h -16.10827 l -4.41859,21.81328 h -12.47272 l 4.30672,-21.81328 H 135.83839 L 131.4198,232.901 h -12.64052 z m 18.40146,-28.80472 -3.29995,16.49979 h 12.41679 L 153.9602,182.283 Z"
         style="font-style:normal;font-variant:normal;font-weight:bold;font-stretch:normal;font-family:arial;-inkscape-font-specification:'arial Bold';stroke-width:0.59660262"
         id="path902"
         inkscape:connector-curvature="0" />
      <path
         d="m 187.12757,231.50272 v -81.32441 h 16.55573 v 67.50933 h 41.16558 v 13.81508 z"
         style="fill:#2e85cf;fill-opacity:0.94117647;stroke-width:0.59660262"
         id="path904"
         inkscape:connector-curvature="0" />
      <path
         d="m 256.5945,149.50714 h 16.55572 v 44.40961 q 0,10.57105 0.61525,13.70322 1.0627,5.03383 5.03383,8.11006 4.02707,3.0203 10.96258,3.0203 7.04737,0 10.62698,-2.8525 3.57962,-2.90844 4.30673,-7.1033 0.72711,-4.19487 0.72711,-13.92695 v -45.36044 h 16.55572 v 43.06725 q 0,14.76592 -1.34235,20.86245 -1.34236,6.09653 -4.97791,10.2914 -3.57961,4.19486 -9.62022,6.71178 -6.0406,2.46098 -15.77268,2.46098 -11.74561,0 -17.84215,-2.68471 -6.0406,-2.74064 -9.56428,-7.04737 -3.52369,-4.36265 -4.64232,-9.11683 -1.62201,-7.04737 -1.62201,-20.80652 z"
         style="fill:#2e85cf;fill-opacity:0.94117647;stroke-width:0.59660262"
         id="path906"
         inkscape:connector-curvature="0" />
      <path
         d="m 339.65278,231.50272 v -81.99558 h 16.10827 l 33.5589,54.75694 v -54.75694 h 15.38117 v 81.99558 H 388.08946 L 355.03394,178.0322 v 53.47052 z"
         style="fill:#2e85cf;fill-opacity:0.94117647;stroke-width:0.59660262"
         id="path908"
         inkscape:connector-curvature="0" />
      <path
         d="m 460.40889,201.35564 v -13.81508 h 35.6843 v 32.66399 q -5.20163,5.03384 -15.1015,8.89311 -9.84395,3.80334 -19.96755,3.80334 -12.86424,0 -22.42853,-5.36942 -9.56429,-5.42536 -14.3744,-15.43709 -4.81011,-10.06768 -4.81011,-21.86922 0,-12.80832 5.36943,-22.76412 5.36942,-9.95581 15.71675,-15.2693 7.88634,-4.083 19.63196,-4.083 15.2693,0 23.82682,6.43212 8.61345,6.37619 11.07443,17.67435 l -16.44386,3.07624 q -1.73387,-6.0406 -6.54398,-9.50836 -4.75418,-3.52368 -11.91341,-3.52368 -10.85071,0 -17.28284,6.87957 -6.37619,6.87958 -6.37619,20.415 0,14.59812 6.48806,21.92515 6.48805,7.27109 17.00317,7.27109 5.20163,0 10.40326,-2.01353 5.25756,-2.06947 9.00497,-4.9779 v -10.40326 z"
         style="fill:#2e85cf;fill-opacity:0.94117647;stroke-width:0.59660262"
         id="path910"
         inkscape:connector-curvature="0" />
      <path
         d="m 507.11169,204.82339 16.10827,-1.56608 q 1.45422,8.11007 5.87281,11.91341 4.47452,3.80334 12.02527,3.80334 7.9982,0 12.02527,-3.35589 4.083,-3.41182 4.083,-7.94227 0,-2.90844 -1.73388,-4.92198 -1.67794,-2.06946 -5.92873,-3.57961 -2.90844,-1.00677 -13.25577,-3.57962 -13.3117,-3.29996 -18.68112,-8.11007 -7.55075,-6.76771 -7.55075,-16.49979 0,-6.26433 3.52368,-11.68968 3.57962,-5.48129 10.23547,-8.3338 6.71178,-2.8525 16.1642,-2.8525 15.43709,0 23.21157,6.76771 7.83041,6.76771 8.22193,18.06587 l -16.55572,0.72711 q -1.0627,-6.32026 -4.58638,-9.0609 -3.46776,-2.79657 -10.4592,-2.79657 -7.21516,0 -11.29816,2.96437 -2.62878,1.90167 -2.62878,5.08976 0,2.90844 2.46099,4.97791 3.13216,2.62878 15.21337,5.48128 12.0812,2.85251 17.84214,5.92874 5.81688,3.0203 9.06091,8.3338 3.29996,5.25756 3.29996,13.03204 0,7.04736 -3.91521,13.19983 -3.9152,6.15246 -11.07444,9.17277 -7.15923,2.96437 -17.84215,2.96437 -15.54895,0 -23.88275,-7.15924 -8.33379,-7.21516 -9.9558,-20.97431 z"
         style="fill:#2e85cf;fill-opacity:0.94117647;stroke-width:0.59660262"
         id="path912"
         inkscape:connector-curvature="0" />
      <path
         d="m 606.27823,231.50272 v -68.12457 h -24.33021 v -13.87101 h 65.1602 v 13.87101 h -24.27427 v 68.12457 z"
         style="font-style:normal;font-variant:normal;font-weight:bold;font-stretch:normal;font-family:arial;-inkscape-font-specification:'arial Bold';stroke-width:0.59660262"
         id="path914"
         inkscape:connector-curvature="0" />
      <path
         d="m 652.47767,191.00831 q 0,-12.52866 3.74741,-21.03025 2.79657,-6.26432 7.60668,-11.24223 4.86604,-4.9779 10.62699,-7.38295 7.66261,-3.24403 17.67435,-3.24403 18.12181,0 28.97252,11.24223 10.90664,11.24223 10.90664,31.26571 0,19.85568 -10.79478,31.09791 -10.79478,11.1863 -28.86065,11.1863 -18.2896,0 -29.08438,-11.13037 -10.79478,-11.1863 -10.79478,-30.76232 z m 17.0591,-0.55932 q 0,13.92695 6.43213,21.14211 6.43212,7.15923 16.332,7.15923 9.89987,0 16.22013,-7.1033 6.37619,-7.15923 6.37619,-21.42176 0,-14.09474 -6.20839,-21.03025 -6.15247,-6.9355 -16.38793,-6.9355 -10.23547,0 -16.4998,7.04737 -6.26433,6.99143 -6.26433,21.1421 z"
         style="font-style:normal;font-variant:normal;font-weight:bold;font-stretch:normal;font-family:arial;-inkscape-font-specification:'arial Bold';stroke-width:0.59660262"
         id="path916"
         inkscape:connector-curvature="0" />
      <path
         d="m 744.9324,231.50272 v -81.99558 h 34.84532 q 13.1439,0 19.07264,2.23726 5.98467,2.18132 9.56429,7.83041 3.57962,5.64908 3.57962,12.92017 0,9.2287 -5.42536,15.2693 -5.42536,5.98467 -16.22013,7.55075 5.36942,3.13217 8.83717,6.87958 3.52369,3.74741 9.45243,13.3117 l 10.01173,15.99641 h -19.79975 l -11.96934,-17.84215 q -6.37619,-9.56429 -8.72531,-12.02528 -2.34913,-2.51691 -4.97791,-3.41182 -2.62878,-0.95083 -8.33379,-0.95083 h -3.35589 v 34.23008 z m 16.55572,-47.31805 h 12.249 q 11.91341,0 14.87778,-1.00677 2.96437,-1.00677 4.64231,-3.46775 1.67795,-2.46099 1.67795,-6.15247 0,-4.13893 -2.23726,-6.65585 -2.18133,-2.57285 -6.2084,-3.24402 -2.01353,-0.27966 -12.0812,-0.27966 h -12.92018 z"
         style="font-style:normal;font-variant:normal;font-weight:bold;font-stretch:normal;font-family:arial;-inkscape-font-specification:'arial Bold';stroke-width:0.59660262"
         id="path918"
         inkscape:connector-curvature="0" />
      <path
         d="m 823.46023,204.82339 16.10827,-1.56608 q 1.45422,8.11007 5.87281,11.91341 4.47452,3.80334 12.02527,3.80334 7.99821,0 12.02527,-3.35589 4.083,-3.41182 4.083,-7.94227 0,-2.90844 -1.73387,-4.92198 -1.67795,-2.06946 -5.92874,-3.57961 -2.90844,-1.00677 -13.25577,-3.57962 -13.3117,-3.29996 -18.68112,-8.11007 -7.55075,-6.76771 -7.55075,-16.49979 0,-6.26433 3.52368,-11.68968 3.57962,-5.48129 10.23547,-8.3338 6.71178,-2.8525 16.1642,-2.8525 15.43709,0 23.21157,6.76771 7.83041,6.76771 8.22193,18.06587 l -16.55572,0.72711 q -1.0627,-6.32026 -4.58638,-9.0609 -3.46776,-2.79657 -10.45919,-2.79657 -7.21517,0 -11.29817,2.96437 -2.62878,1.90167 -2.62878,5.08976 0,2.90844 2.46099,4.97791 3.13216,2.62878 15.21337,5.48128 12.0812,2.85251 17.84215,5.92874 5.81687,3.0203 9.0609,8.3338 3.29996,5.25756 3.29996,13.03204 0,7.04736 -3.91521,13.19983 -3.9152,6.15246 -11.07444,9.17277 -7.15923,2.96437 -17.84214,2.96437 -15.54896,0 -23.88276,-7.15924 -8.33379,-7.21516 -9.9558,-20.97431 z"
         style="font-style:normal;font-variant:normal;font-weight:bold;font-stretch:normal;font-family:arial;-inkscape-font-specification:'arial Bold';stroke-width:0.59660262"
         id="path920"
         inkscape:connector-curvature="0" />
    </g>
  </g>
</svg>
