<?xml version="1.0" encoding="UTF-8" standalone="no"?>
<!-- Created with Inkscape (http://www.inkscape.org/) -->

<svg
   xmlns:dc="http://purl.org/dc/elements/1.1/"
   xmlns:cc="http://creativecommons.org/ns#"
   xmlns:rdf="http://www.w3.org/1999/02/22-rdf-syntax-ns#"
   xmlns:svg="http://www.w3.org/2000/svg"
   xmlns="http://www.w3.org/2000/svg"
   xmlns:xlink="http://www.w3.org/1999/xlink"
   xmlns:sodipodi="http://sodipodi.sourceforge.net/DTD/sodipodi-0.dtd"
   xmlns:inkscape="http://www.inkscape.org/namespaces/inkscape"
   width="1000mm"
   height="1000mm"
   viewBox="0 0 1000 1000"
   version="1.1"
   id="svg8"
   inkscape:version="0.92.4 (5da689c313, 2019-01-14)"
   sodipodi:docname="logo.svg">
  <defs
     id="defs2">
    <linearGradient
       id="linearGradient4613"
       inkscape:collect="always">
      <stop
         id="stop4609"
         offset="0"
         style="stop-color:#0d324e;stop-opacity:0" />
      <stop
         id="stop4611"
         offset="1"
         style="stop-color:#2e85c7;stop-opacity:0.6231156" />
    </linearGradient>
    <linearGradient
       inkscape:collect="always"
       id="linearGradient4584-6">
      <stop
         style="stop-color:#0d324e;stop-opacity:0"
         offset="0"
         id="stop4580" />
      <stop
         style="stop-color:#2e85c7;stop-opacity:0.6231156"
         offset="1"
         id="stop4582" />
    </linearGradient>
    <linearGradient
       inkscape:collect="always"
       xlink:href="#linearGradient4584-6"
       id="linearGradient4848"
       gradientUnits="userSpaceOnUse"
       gradientTransform="matrix(1.2045324,0,0,1.1843134,-105.13069,80.763696)"
       x1="129.14059"
       y1="-304.06888"
       x2="436.12473"
       y2="-187.13847" />
    <linearGradient
       inkscape:collect="always"
       xlink:href="#linearGradient4613"
       id="linearGradient4850"
       gradientUnits="userSpaceOnUse"
       gradientTransform="matrix(1.2045324,0,0,1.1843134,-105.13069,80.763696)"
       x1="129.14059"
       y1="-304.06888"
       x2="436.12473"
       y2="-187.13847" />
    <linearGradient
       inkscape:collect="always"
       xlink:href="#linearGradient4584-6"
       id="linearGradient4886"
       gradientUnits="userSpaceOnUse"
       gradientTransform="matrix(-1.2045331,0,0,1.1843134,1105.131,80.763851)"
       x1="129.14059"
       y1="-304.06888"
       x2="436.12473"
       y2="-187.13847" />
    <linearGradient
       inkscape:collect="always"
       xlink:href="#linearGradient4613"
       id="linearGradient4888"
       gradientUnits="userSpaceOnUse"
       gradientTransform="matrix(-1.2045331,0,0,1.1843134,1105.131,80.763851)"
       x1="129.14059"
       y1="-304.06888"
       x2="436.12473"
       y2="-187.13847" />
  </defs>
  <sodipodi:namedview
     id="base"
     pagecolor="#ffffff"
     bordercolor="#666666"
     borderopacity="1.0"
     inkscape:pageopacity="0.0"
     inkscape:pageshadow="2"
     inkscape:zoom="0.11313709"
     inkscape:cx="-948.11325"
     inkscape:cy="1091.0092"
     inkscape:document-units="mm"
     inkscape:current-layer="layer1"
     showgrid="false"
     inkscape:window-width="1920"
     inkscape:window-height="1017"
     inkscape:window-x="-8"
     inkscape:window-y="442"
     inkscape:window-maximized="1" />
  <metadata
     id="metadata5">
    <rdf:RDF>
      <cc:Work
         rdf:about="">
        <dc:format>image/svg+xml</dc:format>
        <dc:type
           rdf:resource="http://purl.org/dc/dcmitype/StillImage" />
        <dc:title />
      </cc:Work>
    </rdf:RDF>
  </metadata>
  <g
     inkscape:label="Layer 1"
     inkscape:groupmode="layer"
     id="layer1"
     transform="translate(0,703)">
    <path
       style="fill:#ffffff;fill-opacity:1;stroke:#000000;stroke-width:12.42956066;stroke-linecap:butt;stroke-linejoin:miter;stroke-miterlimit:4;stroke-dasharray:none;stroke-opacity:0.96482412"
       d="m 595.7181,-459.48006 c -32.20701,32.22811 -64.65406,398.747368 25.78077,576.38934 40.6088,79.76833 86.25243,39.85416 168.96397,63.79794 82.71154,23.94379 145.12553,89.83649 184.5017,42.94812 38.20456,-45.49323 -47.29675,-418.40658 -136.06578,-567.31526 -48.5143,-81.382 -198.79601,-160.23384 -243.18066,-115.82014 z"
       id="path4518"
       inkscape:connector-curvature="0"
       sodipodi:nodetypes="sszsss" />
    <path
       style="fill:#ffffff;fill-opacity:1;stroke:#000000;stroke-width:12.42956066;stroke-linecap:butt;stroke-linejoin:miter;stroke-miterlimit:4;stroke-dasharray:none;stroke-opacity:0.96482412"
       d="m 404.28191,-459.48005 c 32.20698,32.22811 64.6541,398.747358 -25.78078,576.38936 -40.60874,79.76832 -86.25244,39.85415 -168.96396,63.79793 -82.71154,23.94377 -145.125458,89.83647 -184.501683,42.94811 -38.204619,-45.49324 47.296714,-418.40661 136.065773,-567.31527 48.51434,-81.382 198.79605,-160.23383 243.18065,-115.82013 z"
       id="path4518-2"
       inkscape:connector-curvature="0"
       sodipodi:nodetypes="sszsss" />
    <path
       id="path4535"
       d="m 166.79659,44.305108 c 0,-9.263533 -3.27718,-17.172462 -9.8315,-23.726797 -6.55437,-6.554369 -14.46328,-9.831559 -23.72676,-9.831559 -9.26346,0 -17.17239,3.27719 -23.72675,9.831559 -6.55437,6.554335 -9.8315,14.463264 -9.8315,23.726797 0,9.263487 3.27713,17.172412 9.8315,23.726744 6.55436,6.554372 14.46329,9.831553 23.72675,9.831553 9.26348,0 17.17239,-3.277181 23.72676,-9.831553 6.55432,-6.554332 9.8315,-14.463257 9.8315,-23.726744 z M 267.4714,111.42177 c 0,-4.54438 -1.66044,-8.477 -4.98127,-11.797905 -3.32088,-3.320887 -7.25348,-4.98128 -11.79784,-4.98128 -4.54437,0 -8.47698,1.660393 -11.79782,4.98128 -3.32088,3.320905 -4.98132,7.253525 -4.98132,11.797905 0,4.63176 1.63859,8.58625 4.91577,11.86346 3.27718,3.2772 7.23166,4.91581 11.86337,4.91581 4.63175,0 8.5862,-1.63861 11.86339,-4.91581 3.27713,-3.27721 4.91572,-7.2317 4.91572,-11.86346 z M 217.13401,32.376166 v 24.25112 c 0,0.873929 -0.30585,1.725999 -0.91763,2.55622 -0.61173,0.830223 -1.31086,1.288998 -2.09737,1.3764 L 193.80054,63.706 c -0.96133,3.05869 -2.35958,6.379579 -4.19482,9.962599 2.9713,4.194806 6.9039,9.219793 11.79783,15.075042 0.61174,0.873917 0.91763,1.747835 0.91763,2.621752 0,1.048671 -0.30589,1.878893 -0.91763,2.490667 -2.00997,2.621711 -5.61489,6.53248 -10.81465,11.73233 -5.19977,5.1998 -8.6299,7.79972 -10.29034,7.79972 -0.96132,0 -1.87893,-0.30589 -2.7528,-0.91762 l -15.07501,-11.79791 c -3.23349,1.66045 -6.59807,3.01501 -10.0937,4.06373 -0.96131,9.43833 -1.96633,16.21119 -3.01504,20.31862 -0.61173,2.09739 -1.92257,3.14611 -3.93261,3.14611 h -24.38218 c -0.96127,0 -1.83519,-0.32774 -2.62171,-0.98318 -0.78652,-0.65543 -1.22352,-1.4201 -1.31091,-2.29403 l -3.01497,-20.05642 c -2.9713,-0.87393 -6.24849,-2.22854 -9.83151,-4.06373 l -15.468305,11.66681 c -0.611721,0.61173 -1.485656,0.91762 -2.621718,0.91762 -0.961302,0 -1.878914,-0.34959 -2.752836,-1.04872 C 70.840902,100.71628 64.548723,93.724971 64.548723,91.365393 c 0,-0.786515 0.305904,-1.616736 0.917625,-2.490665 0.873923,-1.223505 2.665457,-3.539377 5.374554,-6.947605 2.70916,-3.40829 4.762834,-6.073749 6.161085,-7.996328 -2.009972,-3.845216 -3.53933,-7.4283 -4.588037,-10.749136 L 52.488768,60.035576 c -0.873922,-0.08737 -1.61675,-0.502533 -2.22852,-1.245363 -0.611733,-0.742821 -0.917575,-1.594891 -0.917575,-2.55621 V 31.982882 c 0,-0.873919 0.305842,-1.725988 0.917575,-2.55621 0.61177,-0.830181 1.310896,-1.28901 2.097426,-1.376412 L 72.67614,24.904165 c 0.961314,-3.058694 2.359578,-6.379581 4.194815,-9.962598 C 73.899594,10.746752 69.966993,5.7217818 65.073114,-0.13346976 64.461344,-1.0947841 64.155502,-1.9687058 64.155502,-2.7552232 c 0,-1.0486694 0.305842,-1.9225911 0.917612,-2.6217165 1.92258,-2.6217655 5.505649,-6.5106633 10.749121,-11.6667283 5.24346,-5.156129 8.695447,-7.734194 10.355862,-7.734194 0.961328,0 1.878903,0.305891 2.752812,0.917625 l 15.075021,11.797838 c 2.9713,-1.573036 6.33587,-2.971299 10.0937,-4.194751 0.9613,-9.438275 1.96631,-16.167467 3.01497,-20.187473 0.61178,-2.097376 1.92263,-3.146096 3.93262,-3.146096 h 24.38218 c 0.96132,0 1.83524,0.327743 2.62176,0.983166 0.78651,0.655436 1.2235,1.420115 1.31085,2.294025 l 3.01504,20.056378 c 2.9713,0.87387 6.24848,2.228469 9.83151,4.063656 l 15.46824,-11.666743 c 0.69918,-0.611734 1.57305,-0.917625 2.62176,-0.917625 0.96131,0 1.87892,0.349594 2.75285,1.048719 12.58435,11.623054 18.87653,18.614355 18.87653,20.9739198 0,0.7865174 -0.30588,1.6167491 -0.91761,2.49065844 -1.04872,1.39824996 -2.88396,3.75781476 -5.50566,7.07870496 -2.62176,3.3208908 -4.58809,5.9426458 -5.89895,7.8652248 2.01004,4.194806 3.49569,7.777837 4.457,10.749182 l 19.92519,3.015008 c 0.87392,0.174743 1.61674,0.63357 2.22847,1.376401 0.61178,0.742819 0.91763,1.594889 0.91763,2.55621 z m 83.8957,69.869474 v 18.35231 c 0,1.39827 -6.51067,2.75283 -19.53201,4.06369 -1.04866,2.35958 -2.35955,4.63177 -3.9326,6.81661 4.45698,9.87523 6.68545,15.90522 6.68545,18.09004 0,0.34954 -0.17478,0.65543 -0.52433,0.91762 -10.66176,6.20479 -16.08002,9.30718 -16.25482,9.30718 -0.69912,0 -2.70908,-2.05373 -6.02998,-6.16109 -3.32089,-4.10741 -5.59305,-7.0787 -6.8165,-8.91394 -1.74785,0.17479 -3.05871,0.26219 -3.93263,0.26219 -0.8739,0 -2.18481,-0.0874 -3.93259,-0.26219 -1.22351,1.83524 -3.49569,4.80653 -6.81657,8.91394 -3.32083,4.10736 -5.33086,6.16109 -6.02998,6.16109 -0.17479,0 -5.59306,-3.10239 -16.25477,-9.30718 -0.34958,-0.26219 -0.52437,-0.56808 -0.52437,-0.91762 0,-2.18482 2.22845,-8.21481 6.68545,-18.09004 -1.57304,-2.18484 -2.88395,-4.45703 -3.93262,-6.81661 -13.02133,-1.31086 -19.53194,-2.66542 -19.53194,-4.06369 v -18.35231 c 0,-1.39827 6.51061,-2.752874 19.53194,-4.063729 1.13607,-2.534361 2.44697,-4.806527 3.93262,-6.816518 -4.457,-9.87526 -6.68545,-15.905252 -6.68545,-18.090026 0,-0.349587 0.17479,-0.655427 0.52437,-0.917623 0.34955,-0.174793 1.87888,-1.048712 4.58804,-2.621754 2.7091,-1.573051 5.28715,-3.058701 7.73412,-4.456949 2.44697,-1.398247 3.75782,-2.097382 3.93261,-2.097382 0.69912,0 2.70915,2.031838 6.02998,6.095545 3.32088,4.063707 5.59306,7.01316 6.81657,8.848397 1.74778,-0.174794 3.05869,-0.262196 3.93259,-0.262196 0.87392,0 2.18478,0.08737 3.93263,0.262196 4.45694,-6.204836 8.47694,-11.098724 12.05996,-14.681797 l 0.78652,-0.262145 c 0.3496,0 5.76785,3.058701 16.25482,9.176085 0.34955,0.262196 0.52433,0.568036 0.52433,0.917623 0,2.184774 -2.22847,8.214766 -6.68545,18.090026 1.48569,2.009991 2.79655,4.282157 3.9326,6.816518 13.02134,1.310855 19.53201,2.665459 19.53201,4.063729 z"
       inkscape:connector-curvature="0"
       style="stroke-width:0.13108717"
       sodipodi:nodetypes="sssssssssssssssssssscccccscssccccsscccccscscscccssscccccscssccccsscccccscscscccssssccscsscscsscsccssccscsssscsccccsccs" />
    <path
       style="fill:url(#linearGradient4848);fill-opacity:1;stroke:url(#linearGradient4850);stroke-width:0.77988952px;stroke-linecap:butt;stroke-linejoin:miter;stroke-opacity:1"
       d="m 356.8497,-441.07562 c -55.69155,0.48931 -147.24973,57.48163 -181.52087,115.92184 -14.29125,24.36989 -58.28098,138.24425 -71.74162,172.95324 28.56223,11.43537 34.31968,-7.28046 52.96504,9.71142 26.56619,24.21013 5.24078,32.38957 24.36819,56.896736 19.12744,24.507165 69.36847,-32.767576 60.8523,74.415555 -4.46115,56.147592 80.02336,28.16067 111.43452,47.32393 6.30438,3.846182 16.96179,34.074741 23.53315,40.062854 57.14349,-169.829604 40.28835,-479.159225 14.16292,-505.734185 -7.99212,-8.12968 -19.85772,-11.67613 -34.05363,-11.55139 z"
       id="path4846"
       inkscape:connector-curvature="0"
       sodipodi:nodetypes="sscssscccs" />
    <path
       style="fill:url(#linearGradient4886);fill-opacity:1;stroke:url(#linearGradient4888);stroke-width:0.77988946px;stroke-linecap:butt;stroke-linejoin:miter;stroke-opacity:1"
       d="m 609.09676,-429.52417 c -28.55085,29.0421 -57.31458,359.328109 22.85411,519.408454 35.99883,71.882736 76.46106,35.914336 149.78313,57.491136 73.32208,21.57675 128.65076,80.95565 163.55696,38.70236 33.86763,-40.99587 -41.92755,-377.04365 -120.61955,-511.23156 -43.00695,-73.33675 -176.22865,-144.39344 -215.57465,-104.37039 z"
       id="path4884"
       inkscape:connector-curvature="0"
       sodipodi:nodetypes="sszsss" />
    <path
       id="path4892-9-6"
       style="fill:none;stroke:#ffffff;stroke-width:62.14780045;stroke-linecap:round;stroke-linejoin:miter;stroke-miterlimit:4;stroke-dasharray:none;stroke-opacity:1;paint-order:stroke fill markers"
       d="m 638.48392,-168.92831 c 0,0 51.90202,19.34403 88.02568,21.10208 36.12367,1.75808 70.20669,-21.29223 70.20669,-21.29223 m -116.3698,14.03395 c 45.50465,64.920303 37.67456,119.543044 15.38919,191.728245 M 500.00249,-266.59034 c 0,0 11.1638,44.9888 60.83621,73.94903 27.05152,15.77172 72.87445,17.3384 93.32142,31.70213 37.22033,23.13546 91.97074,73.005761 135.89911,121.842673 M 361.52105,-168.92831 c 0,0 -51.90202,19.34403 -88.02566,21.10208 -36.12366,1.75808 -70.20667,-21.29223 -70.20667,-21.29223 m 116.36978,14.03395 C 274.15386,-90.164207 281.98393,-35.541466 304.26931,36.643735 M 500.00249,-266.59034 c 0,0 -11.16381,44.9888 -60.83621,73.94903 -27.05153,15.77172 -72.87443,17.3384 -93.32143,31.70213 -37.22033,23.13546 -91.97072,73.005761 -135.89909,121.842673 M 500.00249,-634.91104 v 368.3207"
       inkscape:connector-curvature="0" />
    <path
       id="path4892"
       style="fill:none;stroke:#2e85c7;stroke-width:43.50345993;stroke-linecap:round;stroke-linejoin:miter;stroke-miterlimit:4;stroke-dasharray:none;stroke-opacity:1;paint-order:stroke fill markers"
       d="m 361.52105,-168.9283 c 0,0 -51.90202,19.34402 -88.02567,21.10208 -36.12366,1.75807 -70.20667,-21.29224 -70.20667,-21.29224 m 116.36979,14.03393 C 274.15384,-90.164177 281.98392,-35.541478 304.2693,36.643726 M 500.00249,-266.59034 c 0,0 -11.16381,44.9888 -60.83621,73.94904 -27.05153,15.77171 -72.87443,17.3384 -93.32143,31.70213 -37.22033,23.13545 -91.97073,73.005751 -135.89911,121.842676"
       inkscape:connector-curvature="0"
       sodipodi:nodetypes="csccccscc" />
    <path
       id="path4892-9"
       style="fill:none;stroke:#2e85c7;stroke-width:43.50345993;stroke-linecap:round;stroke-linejoin:miter;stroke-miterlimit:4;stroke-dasharray:none;stroke-opacity:1;paint-order:stroke fill markers"
       d="m 638.48392,-168.9283 c 0,0 51.90202,19.34402 88.02568,21.10208 36.12365,1.75807 70.20666,-21.29224 70.20666,-21.29224 m -116.36979,14.03393 c 45.50466,64.920353 37.67458,119.543052 15.3892,191.72826 M 500.00249,-266.59034 c 0,0 11.1638,44.9888 60.83621,73.94904 27.05152,15.77171 72.87442,17.3384 93.32142,31.70213 37.22033,23.13545 91.97073,73.005751 135.89911,121.842676"
       inkscape:connector-curvature="0"
       sodipodi:nodetypes="csccccscc" />
    <path
       style="fill:none;stroke:#2e85c7;stroke-width:49.71824265;stroke-linecap:round;stroke-linejoin:miter;stroke-miterlimit:4;stroke-dasharray:none;stroke-opacity:1"
       d="m 500.00249,-634.91102 v 368.32068"
       id="path4561"
       inkscape:connector-curvature="0"
       sodipodi:nodetypes="cc" />
  </g>
</svg>
